<?xml version="1.0" encoding="utf-8"?>
<!-- Generator: Adobe Illustrator 24.3.0, SVG Export Plug-In . SVG Version: 6.00 Build 0)  -->
<svg version="1.1" id="Layer_1" xmlns="http://www.w3.org/2000/svg" xmlns:xlink="http://www.w3.org/1999/xlink" x="0px" y="0px"
	 viewBox="0 0 63.8 56.9" style="enable-background:new 0 0 63.8 56.9;" xml:space="preserve">
<style type="text/css">
	.st0{clip-path:url(#SVGID_2_);}
	.st1{fill:#C5C5C5;}
	.st2{fill:#585857;}
</style>
<g>
	<defs>
		<path id="SVGID_1_" d="M43.1,27l-0.7,1.8h-1l3.3-8.4h1.1l3.3,8.4h-1L47.5,27H43.1z M47.2,26.2l-1.9-4.9l-1.9,4.9H47.2z"/>
	</defs>
	<clipPath id="SVGID_2_">
		<use xlink:href="#SVGID_1_"  style="overflow:visible;"/>
	</clipPath>
	<g class="st0">
		<path class="st1" d="M62,32.3H1.8c-0.3,0-0.5-0.2-0.6-0.5c-0.1-0.3,0-0.6,0.3-0.7l29.8-17.7V8.8c0-0.3,0.3-0.6,0.6-0.6
			c1.6,0,2.9-1.3,2.9-2.9s-1.3-2.9-2.9-2.9c-1.6,0-2.9,1.3-2.9,2.9c0,0.3-0.3,0.6-0.6,0.6s-0.6-0.3-0.6-0.6c0-2.3,1.9-4.2,4.2-4.2
			s4.2,1.9,4.2,4.2c0,2.1-1.5,3.8-3.5,4.1v4.4c0,0.2-0.1,0.4-0.3,0.5L4.1,31h55.6L33.8,15.8c-0.3-0.2-0.4-0.6-0.2-0.9
			c0.2-0.3,0.6-0.4,0.9-0.2l27.9,16.4c0.2,0.1,0.4,0.4,0.3,0.7S62.3,32.3,62,32.3z"/>
	</g>
</g>
<g>
	<path class="st1" d="M62,32.3H1.8c-0.3,0-0.5-0.2-0.6-0.5c-0.1-0.3,0-0.6,0.3-0.7l29.8-17.7V8.8c0-0.3,0.3-0.6,0.6-0.6
		c1.6,0,2.9-1.3,2.9-2.9s-1.3-2.9-2.9-2.9c-1.6,0-2.9,1.3-2.9,2.9c0,0.3-0.3,0.6-0.6,0.6s-0.6-0.3-0.6-0.6c0-2.3,1.9-4.2,4.2-4.2
		s4.2,1.9,4.2,4.2c0,2.1-1.5,3.8-3.5,4.1v4.4c0,0.3-0.2,0.6-0.5,0.6L4.1,31h55.6L33.8,15.8c-0.3-0.2-0.4-0.6-0.2-0.9
		c0.2-0.3,0.6-0.4,0.9-0.2l27.9,16.4c0.2,0.1,0.4,0.4,0.3,0.7S62.3,32.3,62,32.3z"/>
</g>
<g>
	<polygon class="st2" points="8,28.8 12.8,28.8 12.8,28 9.1,28 8,28.7 	"/>
	<polygon class="st2" points="8.9,20.4 8,20.4 8,27.3 8.9,26.7 	"/>
	<polygon class="st2" points="45.8,20.4 44.7,20.4 44.6,20.7 46.3,21.7 	"/>
	<polygon class="st2" points="47.2,26.2 43.3,26.2 44.9,22.3 44.1,21.9 41.4,28.8 42.4,28.8 43.1,27 47.5,27 48.2,28.8 49.1,28.8 
		47.1,23.6 45.9,22.9 	"/>
	<rect x="7.9" y="27" class="st2" width="1.1" height="0"/>
	<rect x="7.9" y="28.4" transform="matrix(0.8591 -0.5118 0.5118 0.8591 -13.3204 8.37)" class="st2" width="1.4" height="0"/>
</g>
<g>
	<path class="st2" d="M15.1,28.8h-0.9v-8.4h0.9V28.8z"/>
	<path class="st2" d="M18.4,22.1v6.7h-0.9v-8.4h0.7l5,6.7v-6.7h0.9v8.4h-0.7L18.4,22.1z"/>
	<path class="st2" d="M27.4,22.1v6.7h-0.9v-8.4h0.7l5,6.7v-6.7h0.9v8.4h-0.7L27.4,22.1z"/>
	<path class="st2" d="M40.7,28.8h-5.2v-8.4h5.2v0.8h-4.3v3.1h3.8v0.8h-3.8v3h4.3V28.8z"/>
	<path class="st2" d="M50.8,22.5c0,0.4,0.2,1,1.2,1.3l1.4,0.5c1.2,0.4,2,1.3,2,2.2c0,1.4-1.2,2.4-2.9,2.4c-1.6,0-2.7-0.9-3-2
		l0.9-0.2c0.2,0.7,1,1.3,2.1,1.3c1.2,0,2-0.6,2-1.5c0-0.8-0.7-1.2-1.4-1.5l-1.4-0.5c-1.6-0.5-1.9-1.4-1.9-2.1c0-1.4,1.3-2.3,2.7-2.3
		c1.4,0,2.3,0.8,2.6,1.9l-0.8,0.3c-0.2-0.8-0.8-1.3-1.8-1.3C51.6,21.1,50.8,21.6,50.8,22.5z"/>
	<path class="st2" d="M8.7,40.3c0.2,0.7,0.8,1.2,1.7,1.2c0.9,0,1.5-0.4,1.5-1.1c0-0.5-0.4-0.9-1.1-1.1L9.7,39
		c-1.8-0.6-2.1-1.7-2.1-2.4c0-1.5,1.2-2.4,2.8-2.4c1.4,0,2.4,0.7,2.8,1.9l-1.3,0.5c-0.3-0.9-0.9-1.1-1.5-1.1c-0.7,0-1.2,0.3-1.2,1
		c0,0.3,0.1,0.7,1,1l1.1,0.4c1.6,0.5,2.1,1.5,2.2,2.4c0,1.6-1.4,2.5-3,2.5c-1.6,0-2.9-0.9-3.2-2.3L8.7,40.3z"/>
	<path class="st2" d="M15,42.8v-8.4h5.5v1.2h-3.9v2.4H20v1.2h-3.4v2.3h3.9v1.2H15z"/>
	<path class="st2" d="M26.1,34.3c1.3,0,2.1,0.4,2.9,1l-0.6,1.2c-0.6-0.4-1.4-0.8-2.3-0.8c-1.9,0-3,1.3-3,3c0,1.6,1.1,3,3,3
		c0.9,0,1.7-0.3,2.3-0.8L29,42c-0.8,0.6-1.6,1-2.9,1c-2.8,0-4.6-2-4.6-4.3S23.3,34.3,26.1,34.3z"/>
	<path class="st2" d="M34.1,34.3c2.4,0,4.4,1.9,4.4,4.3s-2,4.3-4.4,4.3c-2.4,0-4.4-1.9-4.4-4.3S31.7,34.3,34.1,34.3z M34.1,41.5
		c1.5,0,2.8-1.2,2.8-2.9s-1.3-2.9-2.8-2.9s-2.8,1.2-2.8,2.9S32.5,41.5,34.1,41.5z"/>
	<path class="st2" d="M41.6,37.1v5.7h-1.5v-8.4h1.2l4.1,5.6v-5.6h1.5v8.4h-1.2L41.6,37.1z"/>
	<path class="st2" d="M52,42.8h-3v-8.4h3c2.5,0,4.4,1.9,4.4,4.2S54.5,42.8,52,42.8z M52,35.6h-1.4v5.9H52c1.6,0,2.8-1.3,2.8-3
		C54.7,37,53.6,35.6,52,35.6z"/>
	<path class="st2" d="M12.9,55.8v-3.4H9.3v3.4H7.8v-8.4h1.5v3.8h3.5v-3.8h1.5v8.4H12.9z"/>
	<path class="st2" d="M20.6,55.8l3.2-8.4h1.6l3.3,8.4h-1.6l-0.6-1.6h-3.7l-0.6,1.6H20.6z M24.7,49l-1.4,3.9h2.8L24.7,49z"/>
	<path class="st2" d="M36.4,50.1v5.7h-1.5v-8.4h1.2l4.1,5.6v-5.6h1.5v8.4h-1.2L36.4,50.1z"/>
	<path class="st2" d="M51.9,55.8h-3v-8.4h3c2.5,0,4.4,1.9,4.4,4.2S54.4,55.8,51.9,55.8z M51.9,48.6h-1.4v5.9h1.4
		c1.6,0,2.8-1.3,2.8-3C54.7,50,53.5,48.6,51.9,48.6z"/>
</g>
</svg>
